<?xml version="1.0" encoding="iso-8859-1"?>
<!-- Uploaded to: SVG Repo, www.svgrepo.com, Generator: SVG Repo Mixer Tools -->
<svg height="800px" width="800px" version="1.1" id="Layer_1" xmlns="http://www.w3.org/2000/svg" xmlns:xlink="http://www.w3.org/1999/xlink" 
	 viewBox="0 0 511.999 511.999" xml:space="preserve">
<g>
	<circle style="fill:#0071CE;" cx="453.592" cy="215.149" r="40.797"/>
	<circle style="fill:#0071CE;" cx="58.422" cy="215.149" r="40.797"/>
	<path style="fill:#0071CE;" d="M255.999,349.986c-101.536,0-188.126,63.946-221.727,153.756h443.453
		C444.124,413.932,357.536,349.986,255.999,349.986z"/>
</g>
<path style="opacity:0.1;enable-background:new    ;" d="M255.999,349.986c-52.758,0-101.476,17.27-140.826,46.457
	c38.883,30.247,87.747,48.27,140.826,48.27s101.943-18.023,140.826-48.27C357.475,367.256,308.757,349.986,255.999,349.986z"/>
<circle style="fill:#00A8E1;" cx="256.002" cy="215.149" r="206.893"/>
<g>
	<path style="fill:#333E48;" d="M303.304,159.009H56.821C81.289,72.026,161.195,8.256,255.999,8.256c0,0,145.068,0,168.907,0
		c23.839,0,28.247,19.047,26.522,28.174C438.233,106.223,376.934,159.009,303.304,159.009z"/>
	<circle style="fill:#333E48;" cx="150.188" cy="203.524" r="23.261"/>
	<circle style="fill:#333E48;" cx="361.815" cy="203.524" r="23.261"/>
</g>
<path style="fill:#FFFFFF;" d="M182.744,263.993c0,40.459,32.799,73.259,73.259,73.259s73.259-32.8,73.259-73.259H182.744
	L182.744,263.993z"/>
<path style="fill:#1E252B;" d="M465.854,262.641c21.333-5.506,36.783-24.965,36.783-47.495c0-22.516-15.431-41.964-36.744-47.484
	c-5.673-25.223-15.884-49.229-30.333-71.06c11.594-17.322,19.915-37.132,23.982-58.64c1.277-6.754,0.233-17.698-6.909-26.317
	C448.229,6.333,439.845,0,424.907,0H255.999c-47.853,0-93.151,15.377-130.997,44.469C88.36,72.633,61.326,112.513,48.876,156.762
	l-0.004-0.001c-1.015,3.609-1.933,7.244-2.757,10.902c-21.318,5.516-36.753,24.966-36.753,47.485
	c0,22.53,15.449,41.988,36.783,47.495c10.841,47.924,37.724,89.827,74.686,119.757c-42.969,28.511-76.225,70.166-94.29,118.452
	c-0.949,2.535-0.593,5.374,0.948,7.598c1.542,2.225,4.078,3.55,6.785,3.55h443.453c2.707,0,5.242-1.327,6.785-3.55
	c1.542-2.225,1.897-5.064,0.948-7.599c-18.077-48.314-51.317-89.938-94.292-118.451C428.13,352.469,455.014,310.566,465.854,262.641
	z M469.277,186.64c10.101,5.589,16.847,16.377,16.847,28.506c0,12.14-6.757,22.937-16.872,28.522
	c1.242-9.335,1.895-18.852,1.895-28.522C471.147,205.546,470.517,196.029,469.277,186.64z M25.875,215.147
	c0-12.135,6.751-22.927,16.861-28.514c-1.248,9.422-1.882,18.946-1.882,28.514c0,9.669,0.652,19.187,1.895,28.521
	C32.632,238.083,25.875,227.287,25.875,215.147z M135.065,57.56C170,30.706,211.819,16.513,255.999,16.513h168.907
	c6.842,0,11.892,1.908,15.01,5.67c3.465,4.182,3.931,9.894,3.398,12.714c-12.692,67.131-71.575,115.856-140.012,115.856H68.045
	C80.639,114.113,104.148,81.325,135.065,57.56z M465.479,495.487H46.521c18.369-42.103,49.343-78.07,88.441-102.561
	c34.507,23.568,76.188,37.369,121.038,37.369c44.847,0,86.528-13.8,121.034-37.367C416.141,417.423,447.104,453.363,465.479,495.487
	z M255.999,413.781c-109.528,0-198.635-89.107-198.635-198.635c0-16.215,1.961-32.292,5.818-47.881h240.121
	c48.251,0,92.24-21.715,121.668-56.598c19.44,31.342,29.663,67.23,29.662,104.479C454.634,324.675,365.527,413.781,255.999,413.781z
	 M252.433,66.887h121.01c4.56,0,8.256-3.697,8.256-8.256s-3.697-8.256-8.256-8.256h-121.01c-4.56,0-8.256,3.697-8.256,8.256
	S247.873,66.887,252.433,66.887z M273.446,100.377H154.835c-4.56,0-8.256,3.697-8.256,8.256s3.697,8.256,8.256,8.256h118.611
	c4.56,0,8.256-3.697,8.256-8.256S278.006,100.377,273.446,100.377z"/>
</svg>